# xmcd
#
# Track frame offsets:
#	150
#	6712
#	13197
#	28194
#	41710
#	67652
#	74400
#	79617
#	107520
#	118085
#	138537
#	161595
#	180470
#	195587
#	204310
#	222687
#	242622
#	249797
#	262462
#
# Disc length: 3578 seconds
#
# Revision: 2
# Processed by: cddbd v1.5.1PL2 Copyright (c) Steve Scherf et al.
# Submitted via: EasyCDDAExtractor 4.6.9.1
#
DISCID=150df813
DTITLE=Bobby Blue Bland - Live On Beale Street
DYEAR=1998
DGENRE=Blues
TTITLE0=Intro, Bobby Blue Bland Orchestra
TTITLE1=When Your Love Is not Around
TTITLE2=That's The Way Love Is
TTITLE3=Love Of Mine
TTITLE4=As Soon As The Weather Breaks
TTITLE5=Further On Up The Road
TTITLE6=I Pity The Fool
TTITLE7=Ain't No Sunshine When She's Gone
TTITLE8=St James Infirmary
TTITLE9=I'll Take Care Of You
TTITLE10=Get Your Money Where You Spend Your Time
TTITLE11=You've Got To Hurt Before You Heal
TTITLE12=Sunday Morning Love
TTITLE13=If You're Gonna' Walk  On My Love
TTITLE14=Bobby Rush, Johnnie Taylor Introduction/Rap
TTITLE15=Stormy Monday
TTITLE16=(Medley) Double Trouble/She's Puttin' Somethin' in My Food
TTITLE17=Members Only
TTITLE18=24 Hours Of The Day
EXTD=
EXTT0=
EXTT1=
EXTT2=
EXTT3=
EXTT4=
EXTT5=
EXTT6=
EXTT7=
EXTT8=
EXTT9=
EXTT10=
EXTT11=
EXTT12=
EXTT13=
EXTT14=
EXTT15=
EXTT16=
EXTT17=
EXTT18=
PLAYORDER=
